<?xml version="1.0" encoding="UTF-8"?>
<svg version="1.1" xmlns="http://www.w3.org/2000/svg" width="194" height="194">
<path d="M0 0 C64.02 0 128.04 0 194 0 C194 64.02 194 128.04 194 194 C129.98 194 65.96 194 0 194 C0 129.98 0 65.96 0 0 Z " fill="#FEFEFE" transform="translate(0,0)"/>
<path d="M0 0 C6.77680466 -0.10212012 13.55340805 -0.17176532 20.33081055 -0.21972656 C22.63231827 -0.23973827 24.93377582 -0.26695631 27.23510742 -0.30175781 C30.55920862 -0.35073699 33.88263276 -0.37307401 37.20703125 -0.390625 C38.2220723 -0.41127014 39.23711334 -0.43191528 40.28291321 -0.45318604 C47.70414355 -0.45547349 55.92023151 0.4704358 61.75520325 5.51849365 C67.43234399 12.17668044 66.60055584 19.71856888 66 28 C65.53520178 32.02210854 64.92216028 36.00770737 64.25 40 C64.01470581 41.44959106 64.01470581 41.44959106 63.7746582 42.9284668 C62.06999656 52.37727958 58.60501875 60.97588397 50.5625 66.75 C41.90695164 70.97221871 33.46233262 71.14670802 24.03515625 71.09765625 C22.48519203 71.09553383 22.48519203 71.09553383 20.90391541 71.09336853 C17.6234134 71.08779839 14.34298117 71.07525141 11.0625 71.0625 C8.83007911 71.05748114 6.59765715 71.05291891 4.36523438 71.04882812 C-1.08986731 71.03783875 -6.54492867 71.0211305 -12 71 C-10.33015725 60.90999248 -8.60605511 50.82963954 -6.875 40.75 C-6.59502593 39.11849407 -6.31507783 37.48698369 -6.03515625 35.85546875 C-5.35711752 31.90358618 -4.678548 27.95179529 -4 24 C2.93 24 9.86 24 17 24 C13.81818182 50.36363636 13.81818182 50.36363636 12 54 C15.56367709 53.94798206 19.12495681 53.85287319 22.6875 53.75 C23.69490234 53.73582031 24.70230469 53.72164062 25.74023438 53.70703125 C31.7040046 53.51690489 31.7040046 53.51690489 37.1015625 51.171875 C43.21130516 44.18212825 43.99610559 32.80595143 44.3125 23.875 C44.1578125 21.956875 44.1578125 21.956875 44 20 C40.91960147 17.94640098 40.20515302 17.74261266 36.7121582 17.68115234 C35.85149246 17.66128265 34.99082672 17.64141296 34.1040802 17.62094116 C33.17899155 17.60938995 32.25390289 17.59783875 31.30078125 17.5859375 C30.35059616 17.56657135 29.40041107 17.5472052 28.4214325 17.5272522 C25.3852131 17.46745088 22.34895581 17.42106871 19.3125 17.375 C17.25454072 17.33682074 15.19659742 17.29776904 13.13867188 17.2578125 C8.0925777 17.16174881 3.04640871 17.07771969 -2 17 C-1.85786703 15.10388566 -1.71113093 13.20811606 -1.5625 11.3125 C-1.48128906 10.25675781 -1.40007812 9.20101562 -1.31640625 8.11328125 C-1.0351936 5.34628765 -0.5663679 2.71896904 0 0 Z " fill="#060606" transform="translate(106,62)"/>
<path d="M0 0 C6.93 0 13.86 0 21 0 C20.41335702 8.21300173 19.36885246 15.78688522 18 24 C26.58 24 35.16 24 44 24 C45.485 12.12 45.485 12.12 47 0 C53.93 0 60.86 0 68 0 C67.56214353 7.61870263 66.75997824 14.9851753 65.37011719 22.48828125 C63.71798055 31.40903796 62.26915611 40.36356737 60.80175781 49.31616211 C57.46148847 69.53851153 57.46148847 69.53851153 56 71 C54.5112814 71.08669432 53.018555 71.10703494 51.52734375 71.09765625 C50.62822266 71.09443359 49.72910156 71.09121094 48.80273438 71.08789062 C47.38444336 71.07532227 47.38444336 71.07532227 45.9375 71.0625 C44.98810547 71.05798828 44.03871094 71.05347656 43.06054688 71.04882812 C40.70696935 71.0370011 38.35351523 71.02052025 36 71 C36.47878987 67.47911532 36.95810015 63.95830167 37.4375 60.4375 C37.57220703 59.44685547 37.70691406 58.45621094 37.84570312 57.43554688 C37.97783203 56.46552734 38.10996094 55.49550781 38.24609375 54.49609375 C38.36654053 53.61107178 38.4869873 52.7260498 38.61108398 51.81420898 C39.06338914 48.54131414 39.53274374 45.27079382 40 42 C31.42 42 22.84 42 14 42 C13.67 45.63 13.34 49.26 13 53 C12.5380647 56.05781085 12.05409407 59.08571176 11.5 62.125 C11.30470703 63.25421875 11.30470703 63.25421875 11.10546875 64.40625 C10.12889766 69.87110234 10.12889766 69.87110234 9 71 C7.5112814 71.08669432 6.018555 71.10703494 4.52734375 71.09765625 C3.62822266 71.09443359 2.72910156 71.09121094 1.80273438 71.08789062 C0.38444336 71.07532227 0.38444336 71.07532227 -1.0625 71.0625 C-2.01189453 71.05798828 -2.96128906 71.05347656 -3.93945312 71.04882812 C-6.29303065 71.0370011 -8.64648477 71.02052025 -11 71 C-10.34857357 61.31484128 -8.77294744 51.81475964 -7.1875 42.25 C-6.91759362 40.60460839 -6.64790115 38.95918168 -6.37841797 37.3137207 C-4.33309165 24.86133349 -2.19787567 12.42645089 0 0 Z " fill="#050505" transform="translate(28,62)"/>
</svg>
